<svg viewBox="0 0 2048 2048" xmlns="http://www.w3.org/2000/svg"><path d="m0 0h2048v2048h-2048z" fill="#a0a0a0" stroke="#231f20" stroke-miterlimit="10" stroke-width="12"/><path d="m913.35 984.55v-18c37.72-10.97 63.84-21.2 78.41-30.69 14.55-9.47 27.11-23.94 37.7-43.41 10.59-19.45 15.89-39.16 15.89-59.12 0-27.59-10.02-51.3-30.05-71.09-20.03-19.78-44.95-29.69-74.75-29.69-46.36 0-85.77 24.84-118.2 74.5l-19-6.5c23.97-55.83 54.67-97.78 92.12-125.88 37.44-28.08 79.14-42.12 125.09-42.12s85.62 14.34 116.09 43c30.45 28.67 45.69 62.17 45.69 100.5 0 25-7.05 49.09-21.14 72.25-14.09 23.17-36.2 43.59-66.36 61.25 38.83 19.03 68.45 42.47 88.88 70.33 20.41 27.88 30.62 62.83 30.62 104.88 0 70.75-25.56 130.91-76.67 180.47s-119.61 74.33-205.5 74.33c-57.28 0-99.06-9.55-125.36-28.61-18.98-13.38-28.47-30.59-28.47-51.69 0-15.38 5.48-28.52 16.47-39.39s23.64-16.31 37.95-16.31c10.97 0 21.3 2.34 30.95 7.03 5.31 2.69 24.2 17.36 56.66 44 32.44 26.66 62.81 39.97 91.11 39.97 24.62 0 45.75-9.77 63.39-29.3s26.47-44.31 26.47-74.38c0-45.73-15.97-87.89-47.88-126.45-31.92-38.56-78.62-65.19-140.12-79.88z"/></svg>