<?xml version="1.0" encoding="UTF-8"?>
<svg id="Layer_1" xmlns="http://www.w3.org/2000/svg" version="1.1" viewBox="0 0 2048 2048">
  <!-- Generator: Adobe Illustrator 30.0.0, SVG Export Plug-In . SVG Version: 2.1.1 Build 123)  -->
  <path d="M0,0h2048v2048H0V0Z" style="fill: #a0a0a0; stroke: #231f20; stroke-miterlimit: 10; stroke-width: 12px;"/>
  <g style="display: none;">
    <path d="M1095.35,632.55v554c0,42.03,1.83,68.83,5.5,80.42,3.66,11.59,11.33,21.09,23,28.48,11.66,7.41,30.33,11.09,56,11.09h15.5v18h-358v-18h18.08c29.12,0,49.89-3.36,62.28-10.08,12.38-6.72,20.75-15.97,25.11-27.73,4.34-11.77,6.53-39.16,6.53-82.19v-351c0-31.33-1.52-50.91-4.52-58.75-3.02-7.83-8.62-14.5-16.83-20s-17.66-8.25-28.36-8.25c-17.08,0-37.83,5.34-62.27,16l-9.03-18,250.44-114h16.56Z"/>
  </g>
  <g style="display: none;">
    <path d="M1184.84,1324.55h-398.48v-11c122-145.53,196-243.45,222-293.73s39-99.41,39-147.38c0-34.97-10.8-64.02-32.38-87.17-21.58-23.14-47.97-34.72-79.16-34.72-51.12,0-90.8,25.64-119.02,76.89l-18.5-6.48c17.97-64.12,45.28-111.56,81.91-142.3s78.91-46.11,126.86-46.11c34.28,0,65.58,8,93.89,24,28.3,16,50.44,37.92,66.42,65.75,15.97,27.84,23.97,53.92,23.97,78.25,0,44.34-12.31,89.34-36.92,135-33.61,61.67-106.97,147.67-220.08,258h146.34c35.97,0,59.36-1.5,70.19-4.5,10.81-3,19.72-8.08,26.72-15.25,6.98-7.16,16.14-22.25,27.47-45.25h18.28l-38.52,196Z"/>
  </g>
  <g style="display: none;">
    <path d="M913.35,984.55v-18c37.72-10.97,63.84-21.2,78.41-30.69,14.55-9.47,27.11-23.94,37.7-43.41,10.59-19.45,15.89-39.16,15.89-59.12,0-27.59-10.02-51.3-30.05-71.09-20.03-19.78-44.95-29.69-74.75-29.69-46.36,0-85.77,24.84-118.2,74.5l-19-6.5c23.97-55.83,54.67-97.78,92.12-125.88,37.44-28.08,79.14-42.12,125.09-42.12s85.62,14.34,116.09,43c30.45,28.67,45.69,62.17,45.69,100.5,0,25-7.05,49.09-21.14,72.25-14.09,23.17-36.2,43.59-66.36,61.25,38.83,19.03,68.45,42.47,88.88,70.33,20.41,27.88,30.62,62.83,30.62,104.88,0,70.75-25.56,130.91-76.67,180.47s-119.61,74.33-205.5,74.33c-57.28,0-99.06-9.55-125.36-28.61-18.98-13.38-28.47-30.59-28.47-51.69,0-15.38,5.48-28.52,16.47-39.39s23.64-16.31,37.95-16.31c10.97,0,21.3,2.34,30.95,7.03,5.31,2.69,24.2,17.36,56.66,44,32.44,26.66,62.81,39.97,91.11,39.97,24.62,0,45.75-9.77,63.39-29.3s26.47-44.31,26.47-74.38c0-45.73-15.97-87.89-47.88-126.45-31.92-38.56-78.62-65.19-140.12-79.88Z"/>
  </g>
  <g style="display: none;">
    <path d="M787.35,1068.55l320.78-436h61.22v436h62v104h-62v152h-138v-152h-244v-104ZM834.27,1068.55h197.08v-267.88l-197.08,267.88Z"/>
  </g>
  <g style="display: none;">
    <path d="M917.35,646.55h317l-51,129h-266.05l-25.25,68c114.75,4.33,203.08,32.92,264.95,85.8,50.89,43.58,76.34,97.8,76.34,162.64,0,41.56-11.94,82.22-35.78,121.97s-57.2,70.45-100.08,92.11c-42.88,21.64-89.91,32.48-141.09,32.48-55.19,0-97.56-10.38-127.14-31.11-20.61-14.72-30.91-31.45-30.91-50.19,0-14.38,5.39-27.09,16.2-38.14,10.8-11.03,23.34-16.56,37.64-16.56,12.95,0,26.08,2.67,39.38,8,13.3,5.34,36.06,19.34,68.31,42,20.28,14,37.72,23.67,52.34,29,10.31,4,21.94,6,34.91,6,27.25,0,50.44-9.98,69.55-29.97s28.67-43.97,28.67-71.95c0-58.23-29.3-105.56-87.88-141.97-58.59-36.41-132.48-54.61-221.69-54.61-8.98,0-22.47.17-40.44.5l122-343Z"/>
  </g>
  <path d="M1242.35,632.55v14c-60.25,15.3-108.59,35-145.03,59.09-36.44,24.11-65.23,53.38-86.36,87.78-21.14,34.41-37.53,77.05-49.17,127.91,14.61-10.09,26.73-16.66,36.38-19.69,21.59-6.72,43.34-10.09,65.28-10.09,50.5,0,92.61,18.47,126.33,55.38,33.72,36.92,50.58,87.28,50.58,151.09,0,44.77-9.16,85.86-27.47,123.27-18.31,37.42-44.3,66.33-77.92,86.7-33.62,20.36-69.59,30.56-107.88,30.56-41.62,0-80.08-11.42-115.36-34.25-35.3-22.83-62.84-56.25-82.66-100.25s-29.72-91.83-29.72-143.5c0-76,18.25-146.75,54.75-212.25s88.33-117.66,155.5-156.5c67.16-38.83,144.75-58.58,232.75-59.25ZM955.35,962.09c-2.67,46.12-4,79.89-4,101.28,0,46.12,4.36,90.75,13.11,133.88s20.7,73.38,35.89,90.75c10.88,12.38,23.75,18.55,38.59,18.55s28.7-8.94,40.58-26.83c11.88-17.88,17.83-54.23,17.83-109.05,0-92.25-11.06-155.94-33.16-191.03-14.19-22.72-33.31-34.09-57.39-34.09-13.19,0-30.34,5.52-51.45,16.55Z"/>
  <g style="display: none;">
    <path d="M943.02,1338.55l184.09-559h-140.16c-54.88,0-96.11,7.17-123.7,21.5-19.3,10-35.27,28.84-47.89,56.5h-19.02l49.05-211h404.44l-227.91,692h-78.91Z"/>
  </g>
  <g style="display: none;">
    <path d="M1108.85,941.27c48.78,35.03,82.41,67.62,100.84,97.81s27.66,64.8,27.66,103.83c0,54.72-20.59,101-61.75,138.86-41.17,37.86-97.09,56.78-167.75,56.78-67,0-118.84-16.52-155.5-49.55-36.67-33.03-55-73.41-55-121.12,0-36.38,10.66-68.23,31.98-95.59,21.31-27.36,56.83-52.39,106.55-75.08-54.23-40.95-88.88-74.44-103.94-100.47-15.06-26.02-22.59-56.2-22.59-90.56,0-45.36,19.17-85.3,57.53-119.83s90.92-51.8,157.69-51.8,114,15.27,148.72,45.78c34.7,30.53,52.06,67.14,52.06,109.83,0,32.03-9.47,60.3-28.38,84.81-18.92,24.53-48.3,46.62-88.12,66.3ZM973.27,1020.77c-10.53,9.36-18.02,17.88-22.42,25.56-6.8,11.72-12.91,28.77-18.34,51.16s-8.16,45.78-8.16,70.19c0,31.42,3.95,57.75,11.89,78.97s19.25,36.52,33.97,45.88c14.7,9.36,29.83,14.03,45.38,14.03,24.12,0,44.44-8.98,60.97-26.95s24.8-42.56,24.8-73.81c.61-65.16-42.08-126.83-128.08-185.02ZM1071.05,916.14c12.25-16.62,21.38-35.27,27.34-55.91,5.97-20.62,8.95-43.27,8.95-67.89,0-43.25-9.2-76.38-27.58-99.34-13.8-17.62-32.84-26.45-57.12-26.45-22,0-40.72,8.08-56.16,24.22-15.44,16.16-23.14,36.2-23.14,60.16s8.66,49.53,25.97,75.66,51.22,55.98,101.73,89.56Z"/>
  </g>
  <g style="display: none;">
    <path d="M793.35,1338.55v-14c55.14-12.67,101.91-31.36,140.28-56.05s68.77-55.2,91.2-91.58c22.42-36.36,38.12-78.23,47.09-125.61-20.56,10.56-38.06,17.92-52.48,22.05-14.44,4.12-29.61,6.19-45.52,6.19-51.08,0-93.61-18.47-127.59-55.44-34-36.95-50.98-87.56-50.98-151.83,0-44.61,9.19-85.48,27.59-122.61,18.39-37.12,44.66-65.92,78.8-86.41,34.14-20.47,69.61-30.72,106.41-30.72,39.44,0,76.72,11.34,111.86,34,35.12,22.67,63.14,55.5,84.02,98.5s31.33,92,31.33,147c0,71.34-17.02,139.67-51.02,205-34.02,65.34-84.7,117.75-152.06,157.25-67.38,39.5-147.02,60.91-238.92,64.25ZM1079.35,1009.55c2.66-37.33,4-70.16,4-98.5,0-60.66-6.89-117.16-20.64-169.5-7.88-29-19.5-50.33-34.91-64-8.19-7.33-18.84-11-31.94-11-16.39,0-29.17,7.17-38.34,21.5-12.78,19.67-19.17,57.17-19.17,112.5,0,92.34,10.88,156,32.66,191,14.17,22.67,33.3,34,57.39,34,12.86,0,29.84-5.33,50.95-16Z"/>
  </g>
  <g style="display: none;">
    <path d="M845.5,631.79v554c0,42.03,1.83,68.83,5.5,80.42,3.66,11.59,11.33,21.09,23,28.48,11.66,7.41,30.33,11.09,56,11.09h15.5v18h-358v-18h18.08c29.12,0,49.89-3.36,62.28-10.08,12.38-6.72,20.75-15.97,25.11-27.73,4.34-11.77,6.53-39.16,6.53-82.19v-351c0-31.33-1.52-50.91-4.52-58.75-3.02-7.83-8.62-14.5-16.83-20s-17.66-8.25-28.36-8.25c-17.08,0-37.83,5.34-62.27,16l-9.03-18,250.44-114h16.56Z"/>
    <path d="M1497.5,984.79c0,67.67-9.5,130.84-28.47,189.5-11.33,36-26.56,65.5-45.7,88.5s-40.86,41.25-65.17,54.75-50.78,20.25-79.41,20.25c-32.62,0-62.09-8.34-88.41-25s-49.61-40.5-69.91-71.5c-14.66-22.66-27.48-52.83-38.47-90.5-14.31-51-21.47-103.66-21.47-158,0-73.66,10.31-141.33,30.97-203,16.97-51,42.78-90.08,77.41-117.25,34.62-27.16,71.25-40.75,109.88-40.75s76,13.42,110.12,40.25c34.12,26.84,59.17,62.92,75.16,108.25,22.31,62.34,33.47,130.5,33.47,204.5ZM1343.5,983.79c0-118.47-.67-187.53-1.98-207.17-3.31-46.25-11.25-77.55-23.81-93.86-8.28-10.64-21.67-15.97-40.2-15.97-14.22,0-25.47,4-33.73,11.98-12.25,11.66-20.52,32.2-24.81,61.66-4.31,29.45-6.45,132.2-6.45,308.25,0,95.86,3.3,160.09,9.92,192.7,4.97,23.62,12.08,39.44,21.34,47.42,9.25,8,21.5,11.98,36.72,11.98,16.53,0,28.94-5.31,37.22-15.97,13.88-18.64,21.81-47.44,23.81-86.38l1.98-214.66Z"/>
  </g>
  <g style="display: none;">
    <path d="M873.5,631.79v554c0,42.03,1.83,68.83,5.5,80.42,3.66,11.59,11.33,21.09,23,28.48,11.66,7.41,30.33,11.09,56,11.09h15.5v18h-358v-18h18.08c29.12,0,49.89-3.36,62.28-10.08,12.38-6.72,20.75-15.97,25.11-27.73,4.34-11.77,6.53-39.16,6.53-82.19v-351c0-31.33-1.52-50.91-4.52-58.75-3.02-7.83-8.62-14.5-16.83-20s-17.66-8.25-28.36-8.25c-17.08,0-37.83,5.34-62.27,16l-9.03-18,250.44-114h16.56Z"/>
    <path d="M1329,631.79v554c0,42.03,1.83,68.83,5.5,80.42,3.66,11.59,11.33,21.09,23,28.48,11.66,7.41,30.33,11.09,56,11.09h15.5v18h-358v-18h18.08c29.12,0,49.89-3.36,62.28-10.08,12.38-6.72,20.75-15.97,25.11-27.73,4.34-11.77,6.53-39.16,6.53-82.19v-351c0-31.33-1.52-50.91-4.52-58.75-3.02-7.83-8.62-14.5-16.83-20s-17.66-8.25-28.36-8.25c-17.08,0-37.83,5.34-62.27,16l-9.03-18,250.44-114h16.56Z"/>
  </g>
  <g style="display: none;">
    <path d="M845.5,631.79v554c0,42.03,1.83,68.83,5.5,80.42,3.66,11.59,11.33,21.09,23,28.48,11.66,7.41,30.33,11.09,56,11.09h15.5v18h-358v-18h18.08c29.12,0,49.89-3.36,62.28-10.08,12.38-6.72,20.75-15.97,25.11-27.73,4.34-11.77,6.53-39.16,6.53-82.19v-351c0-31.33-1.52-50.91-4.52-58.75-3.02-7.83-8.62-14.5-16.83-20s-17.66-8.25-28.36-8.25c-17.08,0-37.83,5.34-62.27,16l-9.03-18,250.44-114h16.56Z"/>
    <path d="M1446.98,1323.79h-398.48v-11c122-145.53,196-243.45,222-293.73s39-99.41,39-147.38c0-34.97-10.8-64.02-32.38-87.17-21.58-23.14-47.97-34.72-79.16-34.72-51.12,0-90.8,25.64-119.02,76.89l-18.5-6.48c17.97-64.12,45.28-111.56,81.91-142.3s78.91-46.11,126.86-46.11c34.28,0,65.58,8,93.89,24,28.3,16,50.44,37.92,66.42,65.75,15.97,27.84,23.97,53.92,23.97,78.25,0,44.34-12.31,89.34-36.92,135-33.61,61.67-106.97,147.67-220.08,258h146.34c35.97,0,59.36-1.5,70.19-4.5,10.81-3,19.72-8.08,26.72-15.25,6.98-7.16,16.14-22.25,27.47-45.25h18.28l-38.52,196Z"/>
  </g>
</svg>