<svg viewBox="0 0 2048 2048" xmlns="http://www.w3.org/2000/svg"><path d="m0 0h2048v2048h-2048z" fill="#a0a0a0" stroke="#231f20" stroke-miterlimit="10" stroke-width="12"/><path d="m845.5 631.79v554c0 42.03 1.83 68.83 5.5 80.42 3.66 11.59 11.33 21.09 23 28.48 11.66 7.41 30.33 11.09 56 11.09h15.5v18h-358v-18h18.08c29.12 0 49.89-3.36 62.28-10.08 12.38-6.72 20.75-15.97 25.11-27.73 4.34-11.77 6.53-39.16 6.53-82.19v-351c0-31.33-1.52-50.91-4.52-58.75-3.02-7.83-8.62-14.5-16.83-20s-17.66-8.25-28.36-8.25c-17.08 0-37.83 5.34-62.27 16l-9.03-18 250.44-114h16.56z"/><path d="m1446.98 1323.79h-398.48v-11c122-145.53 196-243.45 222-293.73s39-99.41 39-147.38c0-34.97-10.8-64.02-32.38-87.17-21.58-23.14-47.97-34.72-79.16-34.72-51.12 0-90.8 25.64-119.02 76.89l-18.5-6.48c17.97-64.12 45.28-111.56 81.91-142.3s78.91-46.11 126.86-46.11c34.28 0 65.58 8 93.89 24 28.3 16 50.44 37.92 66.42 65.75 15.97 27.84 23.97 53.92 23.97 78.25 0 44.34-12.31 89.34-36.92 135-33.61 61.67-106.97 147.67-220.08 258h146.34c35.97 0 59.36-1.5 70.19-4.5 10.81-3 19.72-8.08 26.72-15.25 6.98-7.16 16.14-22.25 27.47-45.25h18.28l-38.52 196z"/></svg>