<svg viewBox="0 0 2048 2048" xmlns="http://www.w3.org/2000/svg"><path d="m0 0h2048v2048h-2048z" fill="#a0a0a0" stroke="#231f20" stroke-miterlimit="10" stroke-width="12"/><path d="m1108.85 941.27c48.78 35.03 82.41 67.62 100.84 97.81s27.66 64.8 27.66 103.83c0 54.72-20.59 101-61.75 138.86-41.17 37.86-97.09 56.78-167.75 56.78-67 0-118.84-16.52-155.5-49.55-36.67-33.03-55-73.41-55-121.12 0-36.38 10.66-68.23 31.98-95.59 21.31-27.36 56.83-52.39 106.55-75.08-54.23-40.95-88.88-74.44-103.94-100.47-15.06-26.02-22.59-56.2-22.59-90.56 0-45.36 19.17-85.3 57.53-119.83s90.92-51.8 157.69-51.8 114 15.27 148.72 45.78c34.7 30.53 52.06 67.14 52.06 109.83 0 32.03-9.47 60.3-28.38 84.81-18.92 24.53-48.3 46.62-88.12 66.3zm-135.58 79.5c-10.53 9.36-18.02 17.88-22.42 25.56-6.8 11.72-12.91 28.77-18.34 51.16s-8.16 45.78-8.16 70.19c0 31.42 3.95 57.75 11.89 78.97s19.25 36.52 33.97 45.88c14.7 9.36 29.83 14.03 45.38 14.03 24.12 0 44.44-8.98 60.97-26.95s24.8-42.56 24.8-73.81c.61-65.16-42.08-126.83-128.08-185.02zm97.78-104.63c12.25-16.62 21.38-35.27 27.34-55.91 5.97-20.62 8.95-43.27 8.95-67.89 0-43.25-9.2-76.38-27.58-99.34-13.8-17.62-32.84-26.45-57.12-26.45-22 0-40.72 8.08-56.16 24.22-15.44 16.16-23.14 36.2-23.14 60.16s8.66 49.53 25.97 75.66 51.22 55.98 101.73 89.56z"/></svg>