<svg viewBox="0 0 2048 2048" xmlns="http://www.w3.org/2000/svg"><path d="m0 0h2048v2048h-2048z" fill="#a0a0a0" stroke="#231f20" stroke-miterlimit="10" stroke-width="12"/><path d="m917.35 646.55h317l-51 129h-266.05l-25.25 68c114.75 4.33 203.08 32.92 264.95 85.8 50.89 43.58 76.34 97.8 76.34 162.64 0 41.56-11.94 82.22-35.78 121.97s-57.2 70.45-100.08 92.11c-42.88 21.64-89.91 32.48-141.09 32.48-55.19 0-97.56-10.38-127.14-31.11-20.61-14.72-30.91-31.45-30.91-50.19 0-14.38 5.39-27.09 16.2-38.14 10.8-11.03 23.34-16.56 37.64-16.56 12.95 0 26.08 2.67 39.38 8 13.3 5.34 36.06 19.34 68.31 42 20.28 14 37.72 23.67 52.34 29 10.31 4 21.94 6 34.91 6 27.25 0 50.44-9.98 69.55-29.97s28.67-43.97 28.67-71.95c0-58.23-29.3-105.56-87.88-141.97-58.59-36.41-132.48-54.61-221.69-54.61-8.98 0-22.47.17-40.44.5l122-343z"/></svg>