<svg viewBox="0 0 2048 2048" xmlns="http://www.w3.org/2000/svg"><path d="m0 0h2048v2048h-2048z" fill="#a0a0a0" stroke="#231f20" stroke-miterlimit="10" stroke-width="12"/><path d="m845.5 631.79v554c0 42.03 1.83 68.83 5.5 80.42 3.66 11.59 11.33 21.09 23 28.48 11.66 7.41 30.33 11.09 56 11.09h15.5v18h-358v-18h18.08c29.12 0 49.89-3.36 62.28-10.08 12.38-6.72 20.75-15.97 25.11-27.73 4.34-11.77 6.53-39.16 6.53-82.19v-351c0-31.33-1.52-50.91-4.52-58.75-3.02-7.83-8.62-14.5-16.83-20s-17.66-8.25-28.36-8.25c-17.08 0-37.83 5.34-62.27 16l-9.03-18 250.44-114h16.56z"/><path d="m1497.5 984.79c0 67.67-9.5 130.84-28.47 189.5-11.33 36-26.56 65.5-45.7 88.5s-40.86 41.25-65.17 54.75-50.78 20.25-79.41 20.25c-32.62 0-62.09-8.34-88.41-25s-49.61-40.5-69.91-71.5c-14.66-22.66-27.48-52.83-38.47-90.5-14.31-51-21.47-103.66-21.47-158 0-73.66 10.31-141.33 30.97-203 16.97-51 42.78-90.08 77.41-117.25 34.62-27.16 71.25-40.75 109.88-40.75s76 13.42 110.12 40.25c34.12 26.84 59.17 62.92 75.16 108.25 22.31 62.34 33.47 130.5 33.47 204.5zm-154-1c0-118.47-.67-187.53-1.98-207.17-3.31-46.25-11.25-77.55-23.81-93.86-8.28-10.64-21.67-15.97-40.2-15.97-14.22 0-25.47 4-33.73 11.98-12.25 11.66-20.52 32.2-24.81 61.66-4.31 29.45-6.45 132.2-6.45 308.25 0 95.86 3.3 160.09 9.92 192.7 4.97 23.62 12.08 39.44 21.34 47.42 9.25 8 21.5 11.98 36.72 11.98 16.53 0 28.94-5.31 37.22-15.97 13.88-18.64 21.81-47.44 23.81-86.38l1.98-214.66z"/></svg>