<svg viewBox="0 0 2048 2048" xmlns="http://www.w3.org/2000/svg"><path d="m0 0h2048v2048h-2048z" fill="#a0a0a0" stroke="#231f20" stroke-miterlimit="10" stroke-width="12"/><path d="m1095.35 632.55v554c0 42.03 1.83 68.83 5.5 80.42 3.66 11.59 11.33 21.09 23 28.48 11.66 7.41 30.33 11.09 56 11.09h15.5v18h-358v-18h18.08c29.12 0 49.89-3.36 62.28-10.08 12.38-6.72 20.75-15.97 25.11-27.73 4.34-11.77 6.53-39.16 6.53-82.19v-351c0-31.33-1.52-50.91-4.52-58.75-3.02-7.83-8.62-14.5-16.83-20s-17.66-8.25-28.36-8.25c-17.08 0-37.83 5.34-62.27 16l-9.03-18 250.44-114h16.56z"/></svg>