<svg viewBox="0 0 2048 2048" xmlns="http://www.w3.org/2000/svg"><path d="m0 0h2048v2048h-2048z" fill="#a0a0a0" stroke="#231f20" stroke-miterlimit="10" stroke-width="12"/><path d="m793.35 1338.55v-14c55.14-12.67 101.91-31.36 140.28-56.05s68.77-55.2 91.2-91.58c22.42-36.36 38.12-78.23 47.09-125.61-20.56 10.56-38.06 17.92-52.48 22.05-14.44 4.12-29.61 6.19-45.52 6.19-51.08 0-93.61-18.47-127.59-55.44-34-36.95-50.98-87.56-50.98-151.83 0-44.61 9.19-85.48 27.59-122.61 18.39-37.12 44.66-65.92 78.8-86.41 34.14-20.47 69.61-30.72 106.41-30.72 39.44 0 76.72 11.34 111.86 34 35.12 22.67 63.14 55.5 84.02 98.5s31.33 92 31.33 147c0 71.34-17.02 139.67-51.02 205-34.02 65.34-84.7 117.75-152.06 157.25-67.38 39.5-147.02 60.91-238.92 64.25zm286-329c2.66-37.33 4-70.16 4-98.5 0-60.66-6.89-117.16-20.64-169.5-7.88-29-19.5-50.33-34.91-64-8.19-7.33-18.84-11-31.94-11-16.39 0-29.17 7.17-38.34 21.5-12.78 19.67-19.17 57.17-19.17 112.5 0 92.34 10.88 156 32.66 191 14.17 22.67 33.3 34 57.39 34 12.86 0 29.84-5.33 50.95-16z"/></svg>