<svg viewBox="0 0 2048 2048" xmlns="http://www.w3.org/2000/svg"><path d="m0 0h2048v2048h-2048z" fill="#a0a0a0" stroke="#231f20" stroke-miterlimit="10" stroke-width="12"/><path d="m1242.35 632.55v14c-60.25 15.3-108.59 35-145.03 59.09-36.44 24.11-65.23 53.38-86.36 87.78-21.14 34.41-37.53 77.05-49.17 127.91 14.61-10.09 26.73-16.66 36.38-19.69 21.59-6.72 43.34-10.09 65.28-10.09 50.5 0 92.61 18.47 126.33 55.38 33.72 36.92 50.58 87.28 50.58 151.09 0 44.77-9.16 85.86-27.47 123.27-18.31 37.42-44.3 66.33-77.92 86.7-33.62 20.36-69.59 30.56-107.88 30.56-41.62 0-80.08-11.42-115.36-34.25-35.3-22.83-62.84-56.25-82.66-100.25s-29.72-91.83-29.72-143.5c0-76 18.25-146.75 54.75-212.25s88.33-117.66 155.5-156.5c67.16-38.83 144.75-58.58 232.75-59.25zm-287 329.54c-2.67 46.12-4 79.89-4 101.28 0 46.12 4.36 90.75 13.11 133.88s20.7 73.38 35.89 90.75c10.88 12.38 23.75 18.55 38.59 18.55s28.7-8.94 40.58-26.83c11.88-17.88 17.83-54.23 17.83-109.05 0-92.25-11.06-155.94-33.16-191.03-14.19-22.72-33.31-34.09-57.39-34.09-13.19 0-30.34 5.52-51.45 16.55z"/></svg>